<svg width="288" height="288" viewBox="0 0 288 288" fill="none" xmlns="http://www.w3.org/2000/svg">
<rect width="288" height="288" />
<path d="M56.1591 164.104C56.053 163.849 56 163.563 56 163.245C56 162.905 56.1803 162.523 56.541 162.099C56.9229 161.653 57.4852 161.431 58.2277 161.431H65.1974C66.0249 161.431 66.7887 161.717 67.4888 162.29C68.189 162.863 68.6876 163.584 68.9846 164.454L77.3864 189.659L85.1517 164.454C85.7669 162.438 87.0293 161.431 88.9388 161.431H94.7946C96.7041 161.431 97.9665 162.438 98.5818 164.454L106.347 189.659L114.749 164.454C115.046 163.584 115.545 162.863 116.245 162.29C116.945 161.717 117.709 161.431 118.536 161.431H125.506C126.227 161.431 126.768 161.653 127.129 162.099C127.511 162.523 127.702 162.905 127.702 163.245C127.702 163.563 127.659 163.849 127.574 164.104L113.38 203.822C112.595 205.986 111.068 207.068 108.798 207.068H104.183C101.828 207.068 100.311 205.986 99.632 203.822L91.8667 179.316L84.1014 203.822C83.4013 205.986 81.8843 207.068 79.5505 207.068H74.904C72.6551 207.068 71.1381 205.986 70.3531 203.822L56.1591 164.104Z" stroke="#00489E" stroke-width="3"/>
<path d="M133.621 203.058C130.354 199.96 128.72 195.505 128.72 189.691C128.72 183.857 130.364 179.38 133.653 176.261C136.941 173.121 141.503 171.551 147.338 171.551C153.172 171.551 157.723 173.079 160.991 176.134C164.258 179.168 165.892 183.528 165.892 189.214V191.028C165.892 191.601 165.701 192.078 165.319 192.46C164.958 192.821 164.491 193.001 163.918 193.001H139.954C140.166 195.611 140.909 197.51 142.182 198.698C143.476 199.886 145.534 200.48 148.356 200.48C151.178 200.48 153.109 199.843 154.148 198.57C155.188 197.297 156.471 196.65 157.999 196.629H162.741C163.314 196.629 163.781 196.82 164.141 197.202C164.523 197.563 164.714 198.029 164.714 198.602C164.714 204.691 158.911 207.725 147.306 207.704C141.45 207.704 136.888 206.155 133.621 203.058ZM139.891 186.286H154.689C154.477 181.279 152.016 178.775 147.306 178.775C142.617 178.775 140.145 181.279 139.891 186.286Z" stroke="#00489E" stroke-width="3"/>
<path d="M171.747 163.404C171.747 162.831 171.928 162.364 172.288 162.004C172.67 161.622 173.137 161.431 173.689 161.431H180.818C181.369 161.431 181.825 161.622 182.186 162.004C182.568 162.364 182.759 162.831 182.759 163.404V173.174C186.196 172.092 189.262 171.551 191.956 171.551C197.176 171.551 201.323 173.11 204.4 176.229C207.476 179.327 209.014 183.804 209.014 189.659C209.014 201.689 202.278 207.704 188.806 207.704C185.729 207.704 182.536 207.365 179.226 206.686C175.938 205.986 173.445 205.137 171.747 204.14V163.404ZM182.759 180.526V199.302C184.583 199.79 186.907 200.034 189.728 200.034C192.55 200.034 194.576 199.218 195.807 197.584C197.059 195.95 197.685 193.309 197.685 189.659C197.685 186.01 197.069 183.369 195.839 181.735C194.63 180.08 192.572 179.253 189.665 179.253C187.798 179.253 185.496 179.677 182.759 180.526Z" stroke="#00489E" stroke-width="3"/>
<path d="M212.929 181.83C212.929 174.977 218.456 171.551 229.51 171.551C241.136 171.551 246.95 174.596 246.95 180.685C246.95 181.236 246.769 181.703 246.409 182.085C246.048 182.446 245.581 182.626 245.008 182.626H240.267C238.739 182.626 237.455 181.99 236.416 180.717C235.376 179.422 233.329 178.775 230.273 178.775C226.073 178.775 223.972 179.794 223.972 181.83C223.972 182.785 224.789 183.581 226.423 184.217C228.078 184.854 230.083 185.416 232.438 185.904C234.814 186.371 237.18 186.975 239.535 187.718C241.89 188.461 243.884 189.649 245.518 191.282C247.173 192.895 248 194.942 248 197.425C248 204.278 242.165 207.704 230.496 207.704C218.827 207.704 212.993 204.67 212.993 198.602C212.993 198.029 213.173 197.563 213.534 197.202C213.915 196.82 214.393 196.629 214.966 196.629H219.708C221.235 196.629 222.519 197.276 223.558 198.57C224.598 199.843 226.645 200.48 229.701 200.48C234.559 200.48 236.989 199.461 236.989 197.425C236.989 196.47 236.161 195.674 234.506 195.038C232.873 194.401 230.868 193.839 228.491 193.351C226.115 192.842 223.749 192.227 221.394 191.505C219.061 190.763 217.066 189.575 215.411 187.941C213.756 186.307 212.929 184.27 212.929 181.83Z" stroke="#00489E" stroke-width="3"/>
<path d="M90.1248 140.08H69.8474V110.88H91.3994C91.3994 120.613 101.133 122.235 105.999 122.467C110.055 122.467 115.848 121.54 115.848 116.674C115.848 107.636 71.3537 111.459 71.3537 81.9123C71.3537 64.7634 87.5756 57 98.931 57C108.664 57 118.513 60.1285 123.148 68.8189L124.307 59.0857H144.237V88.1693H123.264C123.264 79.5949 116.543 74.7283 108.432 74.7283C105.072 74.7283 100.437 76.814 100.437 80.8695C100.437 92.8042 146.322 90.0233 146.322 117.253C146.322 135.329 129.405 141.818 115.616 141.818C103.913 141.818 95.8025 136.372 91.3994 131.158L90.1248 140.08Z" fill="url(#paint0_linear_45_7)"/>
<path d="M188.611 59.0857V74.0331H182.354V92.9201L203.906 74.0331H195.563V59.0857H234.148V74.0331H227.428L210.626 88.517L234.032 125.016H240.753V140.08H195.563V125.016H203.442L190.928 105.318L182.354 112.618V125.016H188.611V140.08H152.111V125.016H158.368V74.0331H152.111V59.0857H188.611Z" fill="url(#paint1_linear_45_7)"/>
<defs>
<linearGradient id="paint0_linear_45_7" x1="136.654" y1="22.398" x2="200.927" y2="158.184" gradientUnits="userSpaceOnUse">
<stop offset="0.0319469" stop-color="#020B1D"/>
<stop offset="0.510417" stop-color="#4786FF"/>
<stop offset="1"/>
</linearGradient>
<linearGradient id="paint1_linear_45_7" x1="136.654" y1="22.398" x2="200.927" y2="158.184" gradientUnits="userSpaceOnUse">
<stop offset="0.0319469" stop-color="#020B1D"/>
<stop offset="0.510417" stop-color="#4786FF"/>
<stop offset="1"/>
</linearGradient>
</defs>
</svg>
